<?xml version="1.0" encoding="UTF-8" standalone="no"?>
<svg xmlns:dc="http://purl.org/dc/elements/1.1/" xmlns:cc="http://web.resource.org/cc/" xmlns:rdf="http://www.w3.org/1999/02/22-rdf-syntax-ns#" xmlns:svg="http://www.w3.org/2000/svg" xmlns="http://www.w3.org/2000/svg" xmlns:sodipodi="http://sodipodi.sourceforge.net/DTD/sodipodi-0.dtd" xmlns:inkscape="http://www.inkscape.org/namespaces/inkscape" width="26.68cm" height="9.9087658cm" id="svg2" sodipodi:version="0.32" inkscape:version="0.44.1" sodipodi:docname="Opampcomparator.svg" sodipodi:docbase="/Users/overmac/Desktop/amplis" version="1.0">
  <metadata id="metadata33">
    <rdf:RDF>
      <cc:Work rdf:about="">
        <dc:format>image/svg+xml</dc:format>
        <dc:type rdf:resource="http://purl.org/dc/dcmitype/StillImage"/>
      </cc:Work>
    </rdf:RDF>
  </metadata>
  <sodipodi:namedview inkscape:cy="171.81506" inkscape:cx="305.25953" inkscape:zoom="0.86831673" inkscape:window-height="766" inkscape:window-width="1214" inkscape:pageshadow="2" inkscape:pageopacity="0.0" borderopacity="1.0" bordercolor="#666666" pagecolor="#ffffff" id="base" inkscape:window-x="28" inkscape:window-y="42" inkscape:current-layer="svg2"/>
  <defs id="defs4">
    <marker id="ArrowEnd" viewBox="0 0 10 10" refX="0" refY="5" markerUnits="strokeWidth" markerWidth="4" markerHeight="3" orient="auto">
      <path d="M 0,0 L 10,5 L 0,10 L 0,0 z " id="path7"/>
    </marker>
    <marker id="ArrowStart" viewBox="0 0 10 10" refX="10" refY="5" markerUnits="strokeWidth" markerWidth="4" markerHeight="3" orient="auto">
      <path d="M 10,0 L 0,5 L 10,10 L 10,0 z " id="path10"/>
    </marker>
  </defs>
  <path id="path16" d="M 318.9979,268.08787 L 358.2949,268.08787 L 358.2949,263.98987 L 318.9979,263.98987 L 318.9979,268.08787 z " style="fill:#000000;stroke:none"/>
  <path id="path18" d="M 340.5719,105.61146 L 336.4749,105.61146 L 336.4749,87.638561 L 318.7249,87.638561 L 318.7249,83.540561 L 336.4749,83.540561 L 336.4749,65.642561 L 340.5719,65.642561 L 340.5719,83.540561 L 358.3929,83.540561 L 358.3929,87.638561 L 340.5719,87.638561 L 340.5719,105.61146 z " style="fill:#000000;stroke:none"/>
  <path id="path20" d="M 182.174,85.5491 L 302.1739,85.5491" style="fill:none;stroke:#000000;stroke-width:4.875;stroke-linecap:round"/>
  <path id="path22" d="M 182.174,265.549 L 302.1739,265.549" style="fill:none;stroke:#000000;stroke-width:4.875;stroke-linecap:round"/>
  <path id="path24" d="M 722.1739,175.549 L 602.1739,175.549" style="fill:none;stroke:#000000;stroke-width:4.875;stroke-linecap:round"/>
  <path id="path26" d="M 193.424,85.5491 C 193.424,79.3381 188.3888,74.2991 182.174,74.2991 C 175.9631,74.2991 170.924,79.3341 170.924,85.5491 C 170.924,91.7601 175.9592,96.7991 182.174,96.7991 C 188.3849,96.7991 193.424,91.7641 193.424,85.5491" style="fill:#000000;stroke:none"/>
  <path id="path28" d="M 193.424,265.549 C 193.424,259.338 188.3888,254.299 182.174,254.299 C 175.9631,254.299 170.924,259.334 170.924,265.549 C 170.924,271.76 175.9592,276.799 182.174,276.799 C 188.3849,276.799 193.424,271.764 193.424,265.549" style="fill:#000000;stroke:none"/>
  <path id="path30" d="M 733.4239,175.549 C 733.4239,169.338 728.3889,164.299 722.1739,164.299 C 715.9629,164.299 710.9239,169.334 710.9239,175.549 C 710.9239,181.76 715.9589,186.799 722.1739,186.799 C 728.3849,186.799 733.4239,181.764 733.4239,175.549" style="fill:#000000;stroke:none"/>
  <text xml:space="preserve" style="font-size:72px;font-style:normal;font-variant:normal;font-weight:bold;font-stretch:normal;text-align:start;line-height:125%;writing-mode:lr-tb;text-anchor:start;fill:#000000;fill-opacity:1;stroke:none;stroke-width:1px;stroke-linecap:butt;stroke-linejoin:miter;stroke-opacity:1;font-family:Serif" x="758.06512" y="185.72726" id="text3009" sodipodi:linespacing="125%"><tspan sodipodi:role="line" id="tspan3011" x="758.06512" y="185.72726">V</tspan><tspan style="font-size:56px" dy="20" id="tspan87">s</tspan></text>
  <text xml:space="preserve" style="font-size:72px;font-style:normal;font-variant:normal;font-weight:bold;font-stretch:normal;text-align:start;line-height:125%;writing-mode:lr-tb;text-anchor:start;fill:black;fill-opacity:1;stroke:none;stroke-width:1px;stroke-linecap:butt;stroke-linejoin:miter;stroke-opacity:1;font-family:Serif" x="63.350258" y="97.855209" id="text1513" sodipodi:linespacing="125%"><tspan sodipodi:role="line" id="tspan1515" x="63.350258" y="97.855209">V</tspan><tspan style="font-size:56px" id="tspan49" dy="20">1</tspan></text>
  <text xml:space="preserve" style="font-size:72px;font-style:normal;font-variant:normal;font-weight:bold;font-stretch:normal;text-align:start;line-height:125%;writing-mode:lr-tb;text-anchor:start;fill:black;fill-opacity:1;stroke:none;stroke-width:1px;stroke-linecap:butt;stroke-linejoin:miter;stroke-opacity:1;font-family:Serif" x="63.07682" y="274.0582" id="text1893" sodipodi:linespacing="125%"><tspan sodipodi:role="line" id="tspan1895" x="63.07682" y="274.0582">V</tspan><tspan style="font-size:56px" id="tspan1897" dy="20">2</tspan></text>
  <path id="path297" d="M 600.87235,324.60997 L 599.43565,25.037527 L 302.024,24.895007 L 302.024,324.89501 L 600.87235,324.60997 z " style="fill:none;stroke:#000000;stroke-width:4.875;stroke-linecap:round" sodipodi:nodetypes="ccccc"/>
</svg>