<?xml version="1.0" encoding="UTF-8" standalone="no"?>
<svg xmlns:dc="http://purl.org/dc/elements/1.1/" xmlns:cc="http://web.resource.org/cc/" xmlns:rdf="http://www.w3.org/1999/02/22-rdf-syntax-ns#" xmlns:svg="http://www.w3.org/2000/svg" xmlns="http://www.w3.org/2000/svg" xmlns:sodipodi="http://sodipodi.sourceforge.net/DTD/sodipodi-0.dtd" xmlns:inkscape="http://www.inkscape.org/namespaces/inkscape" width="1973.2677" height="1583.5039" id="svg2063" sodipodi:version="0.32" inkscape:version="0.44.1" sodipodi:docbase="/Users/overmac/Desktop/amplis" sodipodi:docname="Opampsumming.svg" version="1.0">
  <metadata id="metadata2164">
    <rdf:RDF>
      <cc:Work rdf:about="">
        <dc:format>image/svg+xml</dc:format>
        <dc:type rdf:resource="http://purl.org/dc/dcmitype/StillImage"/>
      </cc:Work>
    </rdf:RDF>
  </metadata>
  <sodipodi:namedview inkscape:window-height="767" inkscape:window-width="1214" inkscape:pageshadow="2" inkscape:pageopacity="0.0" guidetolerance="10.0" gridtolerance="10.0" objecttolerance="10.0" borderopacity="1.0" bordercolor="#666666" pagecolor="#ffffff" id="base" inkscape:zoom="0.31735031" inkscape:cx="434.45818" inkscape:cy="704.13608" inkscape:window-x="78" inkscape:window-y="75" inkscape:current-layer="svg2063" width="55.69cm" height="44.69cm" units="cm"/>
  <defs id="defs2065"/>
  <g id="g3148" transform="translate(171.6417,114.4278)">
    <path style="fill:black;fill-rule:evenodd;stroke:none" d="M 899.296,813.598 L 954.314,813.598 L 954.314,807.801 L 899.296,807.801 L 899.296,813.598 z " id="path2077"/>
    <path style="fill:black;fill-rule:evenodd;stroke:none" d="M 929.539,1047.23 L 923.742,1047.23 L 923.742,1072.3 L 898.898,1072.3 L 898.898,1078.09 L 923.742,1078.09 L 923.742,1103.2 L 929.539,1103.2 L 929.539,1078.09 L 954.434,1078.09 L 954.434,1072.3 L 929.539,1072.3 L 929.539,1047.23 z " id="path2079"/>
    <path style="fill:none;stroke:black;stroke-width:6.82499981;stroke-linecap:round" d="M 707.769,1332.52 L 707.769,1248.52" id="path2081"/>
    <path style="fill:none;stroke:black;stroke-width:6.82499981;stroke-linecap:round" d="M 791.769,1332.52 L 623.769,1332.52" id="path2083"/>
    <path style="fill:none;stroke:black;stroke-width:6.82499981;stroke-linecap:round" d="M 755.019,1369.27 L 660.519,1369.27" id="path2085"/>
    <path style="fill:none;stroke:black;stroke-width:6.82499981;stroke-linecap:round" d="M 718.269,1406.02 L 697.269,1406.02" id="path2087"/>
    <path style="fill:none;stroke:black;stroke-width:6.82499981;stroke-linecap:round" d="M 875.769,1080.52 L 707.769,1080.52 L 707.769,1248.52" id="path2089"/>
    <path style="fill:none;stroke:black;stroke-width:6.82499981;stroke-linecap:round" d="M 1180.26,576.524 L 1253.76,576.524" id="path2091"/>
    <path style="fill:none;stroke:black;stroke-width:6.82499981;stroke-linecap:round" d="M 991.264,576.524 L 917.761,576.524" id="path2093"/>
    <path style="fill:none;stroke:black;stroke-width:6.82499981;stroke-linecap:round" d="M 382.269,828.524 L 455.769,828.524" id="path2097"/>
    <path style="fill:none;stroke:black;stroke-width:6.82499981;stroke-linecap:round" d="M 193.269,828.524 L 119.769,828.524" id="path2099"/>
    <path style="fill:none;stroke:black;stroke-width:6.82499981;stroke-linecap:round" d="M 382.269,576.524 L 455.769,576.524" id="path2103"/>
    <path style="fill:none;stroke:black;stroke-width:6.82499981;stroke-linecap:round" d="M 193.269,576.524 L 119.769,576.524" id="path2105"/>
    <path style="fill:none;stroke:black;stroke-width:6.82499981;stroke-linecap:round;stroke-linejoin:round;stroke-miterlimit:4;stroke-dasharray:6.82499981, 20.47499943;stroke-dashoffset:0" d="M 382.269,324.519 L 455.769,324.519" id="path2109"/>
    <path style="fill:none;stroke:black;stroke-width:6.82499981;stroke-linecap:round;stroke-linejoin:round;stroke-miterlimit:4;stroke-dasharray:6.82499981, 20.47499943;stroke-dashoffset:0" d="M 193.269,324.519 L 119.769,324.519" id="path2111"/>
    <path style="fill:none;stroke:#000000;stroke-width:6.82499981;stroke-linecap:round;stroke-linejoin:round;stroke-miterlimit:4;stroke-dasharray:6.82499981, 20.47499943;stroke-dashoffset:0" d="M 194.84456,288.28144 L 384.65963,287.769 L 383.89369,359.45634 L 194.05132,358.90568 L 194.84456,288.28144 z " id="path2113" sodipodi:nodetypes="ccccc"/>
    <path style="fill:none;stroke:black;stroke-width:6.82499981;stroke-linecap:round" d="M 382.269,72.5188 L 455.769,72.5188" id="path2115"/>
    <path style="fill:none;stroke:black;stroke-width:6.82499981;stroke-linecap:round" d="M 193.269,72.5188 L 119.769,72.5188" id="path2117"/>
    <path style="fill:none;stroke:black;stroke-width:6.82499981;stroke-linecap:round" d="M 917.769,576.524 L 707.769,576.524 L 707.769,828.524" id="path2121"/>
    <path style="fill:none;stroke:black;stroke-width:6.82499981;stroke-linecap:round" d="M 1295.76,954.524 L 1421.76,954.524 L 1421.76,576.524 L 1253.76,576.524" id="path2123"/>
    <path style="fill:none;stroke:black;stroke-width:6.82499981;stroke-linecap:round" d="M 1421.76,954.524 L 1547.76,954.524" id="path2125"/>
    <path style="fill:none;stroke:black;stroke-width:6.82499981;stroke-linecap:round" d="M 455.769,828.524 L 875.769,828.524" id="path2127"/>
    <path style="fill:none;stroke:black;stroke-width:6.82499981;stroke-linecap:round" d="M 455.769,72.5188 L 539.769,72.5188 L 539.769,828.52" id="path2129"/>
    <path style="fill:none;stroke:black;stroke-width:6.82499981;stroke-linecap:round;stroke-linejoin:round;stroke-miterlimit:4;stroke-dasharray:6.82499981, 20.47499943;stroke-dashoffset:0" d="M 539.769,324.519 L 455.769,324.519" id="path2131"/>
    <path style="fill:none;stroke:black;stroke-width:6.82499981;stroke-linecap:round" d="M 539.769,576.524 L 455.769,576.524" id="path2133"/>
    <path style="fill:none;stroke:black;stroke-width:6.82499981;stroke-linecap:round" d="M 35.7688,72.5188 L 119.769,72.5188" id="path2135"/>
    <path style="fill:none;stroke:black;stroke-width:6.82499981;stroke-linecap:round;stroke-linejoin:round;stroke-miterlimit:4;stroke-dasharray:6.82499981, 20.47499943;stroke-dashoffset:0" d="M 119.769,324.519 L 35.7688,324.519" id="path2137"/>
    <path style="fill:none;stroke:black;stroke-width:6.82499981;stroke-linecap:round" d="M 119.769,576.524 L 35.7688,576.524" id="path2139"/>
    <path style="fill:none;stroke:black;stroke-width:6.82499981;stroke-linecap:round" d="M 119.769,828.524 L 35.7688,828.524" id="path2141"/>
    <path style="fill:black;fill-rule:evenodd;stroke:none" d="M 51.5188,72.5188 C 51.5188,63.8289 44.468,56.7688 35.7688,56.7688 C 27.0735,56.7688 20.0188,63.8188 20.0188,72.5188 C 20.0188,81.2188 27.0695,88.2688 35.7688,88.2688 C 44.4641,88.2688 51.5188,81.2188 51.5188,72.5188" id="path2143"/>
    <path style="fill:black;fill-rule:evenodd;stroke:none" d="M 51.5188,324.519 C 51.5188,315.829 44.468,308.769 35.7688,308.769 C 27.0735,308.769 20.0188,315.819 20.0188,324.519 C 20.0188,333.219 27.0695,340.269 35.7688,340.269 C 44.4641,340.269 51.5188,333.219 51.5188,324.519" id="path2145"/>
    <path style="fill:black;fill-rule:evenodd;stroke:none" d="M 51.5188,576.524 C 51.5188,567.829 44.468,560.774 35.7688,560.774 C 27.0735,560.774 20.0188,567.825 20.0188,576.524 C 20.0188,585.219 27.0695,592.274 35.7688,592.274 C 44.4641,592.274 51.5188,585.223 51.5188,576.524" id="path2147"/>
    <path style="fill:black;fill-rule:evenodd;stroke:none" d="M 555.519,324.519 C 555.519,315.829 548.468,308.769 539.769,308.769 C 531.074,308.769 524.019,315.819 524.019,324.519 C 524.019,333.219 531.07,340.269 539.769,340.269 C 548.464,340.269 555.519,333.219 555.519,324.519" id="path2149"/>
    <path style="fill:black;fill-rule:evenodd;stroke:none" d="M 555.519,576.524 C 555.519,567.829 548.468,560.774 539.769,560.774 C 531.074,560.774 524.019,567.825 524.019,576.524 C 524.019,585.219 531.07,592.274 539.769,592.274 C 548.464,592.274 555.519,585.223 555.519,576.524" id="path2151"/>
    <path style="fill:black;fill-rule:evenodd;stroke:none" d="M 51.5188,828.524 C 51.5188,819.829 44.468,812.774 35.7688,812.774 C 27.0735,812.774 20.0188,819.825 20.0188,828.524 C 20.0188,837.219 27.0695,844.274 35.7688,844.274 C 44.4641,844.274 51.5188,837.223 51.5188,828.524" id="path2153"/>
    <path style="fill:black;fill-rule:evenodd;stroke:none" d="M 555.519,828.524 C 555.519,819.829 548.468,812.774 539.769,812.774 C 531.074,812.774 524.019,819.825 524.019,828.524 C 524.019,837.219 531.07,844.274 539.769,844.274 C 548.464,844.274 555.519,837.223 555.519,828.524" id="path2155"/>
    <path style="fill:black;fill-rule:evenodd;stroke:none" d="M 723.519,828.524 C 723.519,819.829 716.468,812.774 707.769,812.774 C 699.074,812.774 692.019,819.825 692.019,828.524 C 692.019,837.219 699.07,844.274 707.769,844.274 C 716.464,844.274 723.519,837.223 723.519,828.524" id="path2157"/>
    <path style="fill:black;fill-rule:evenodd;stroke:none" d="M 1437.52,954.524 C 1437.52,945.829 1430.47,938.774 1421.77,938.774 C 1413.07,938.774 1406.02,945.825 1406.02,954.524 C 1406.02,963.219 1413.07,970.274 1421.77,970.274 C 1430.46,970.274 1437.52,963.223 1437.52,954.524" id="path2159"/>
    <path style="fill:black;fill-rule:evenodd;stroke:none" d="M 1563.52,954.524 C 1563.52,945.829 1556.47,938.774 1547.77,938.774 C 1539.07,938.774 1532.02,945.825 1532.02,954.524 C 1532.02,963.219 1539.07,970.274 1547.77,970.274 C 1556.46,970.274 1563.52,963.223 1563.52,954.524" id="path2161"/>
  </g>
  <text xml:space="preserve" style="font-size:72px;font-style:normal;font-variant:normal;font-weight:bold;font-stretch:normal;text-align:start;line-height:125%;writing-mode:lr-tb;text-anchor:start;fill:black;fill-opacity:1;stroke:none;stroke-width:1px;stroke-linecap:butt;stroke-linejoin:miter;stroke-opacity:1;font-family:Serif" x="1785.626" y="1080.026" id="text3009" sodipodi:linespacing="125%"><tspan sodipodi:role="line" id="tspan3011" x="1785.626" y="1080.026">V</tspan><tspan style="font-size:56px" dy="20" id="tspan87">s</tspan></text>
  <text xml:space="preserve" style="font-size:72px;font-style:normal;font-variant:normal;font-weight:bold;font-stretch:normal;text-align:start;line-height:125%;writing-mode:lr-tb;text-anchor:start;fill:black;fill-opacity:1;stroke:none;stroke-width:1px;stroke-linecap:butt;stroke-linejoin:miter;stroke-opacity:1;font-family:Serif" x="47.145737" y="969.43549" id="text1513" sodipodi:linespacing="125%"><tspan sodipodi:role="line" id="tspan1515" x="47.145737" y="969.43549">V</tspan><tspan style="font-size:56px" id="tspan49" dy="20">1</tspan></text>
  <text xml:space="preserve" style="font-size:72px;font-style:normal;font-variant:normal;font-weight:bold;font-stretch:normal;text-align:start;line-height:125%;writing-mode:lr-tb;text-anchor:start;fill:black;fill-opacity:1;stroke:none;stroke-width:1px;stroke-linecap:butt;stroke-linejoin:miter;stroke-opacity:1;font-family:Serif" x="46.872307" y="710.81293" id="text1893" sodipodi:linespacing="125%"><tspan sodipodi:role="line" id="tspan1895" x="46.872307" y="710.81293">V</tspan><tspan style="font-size:56px" id="tspan1897" dy="20">2</tspan></text>
  <text xml:space="preserve" style="font-size:72px;font-style:normal;font-variant:normal;font-weight:bold;font-stretch:normal;text-align:start;line-height:125%;writing-mode:lr-tb;text-anchor:start;fill:black;fill-opacity:1;stroke:none;stroke-width:1px;stroke-linecap:butt;stroke-linejoin:miter;stroke-opacity:1;font-family:Serif" x="44.12426" y="199.3286" id="text2175" sodipodi:linespacing="125%"><tspan sodipodi:role="line" id="tspan2177" x="44.12426" y="199.3286">V</tspan><tspan style="font-size:56px" id="tspan2179" dy="20">n</tspan></text>
  <text xml:space="preserve" style="font-size:72px;font-style:normal;font-variant:normal;font-weight:bold;font-stretch:normal;text-align:start;line-height:125%;writing-mode:lr-tb;text-anchor:start;fill:black;fill-opacity:1;stroke:none;stroke-width:1px;stroke-linecap:butt;stroke-linejoin:miter;stroke-opacity:1;font-family:Serif" x="426.66455" y="866.63721" id="text3124" sodipodi:linespacing="125%"><tspan sodipodi:role="line" id="tspan3126" x="426.66455" y="866.63721">R</tspan><tspan style="font-size:56px" id="tspan3128" dy="20">1</tspan></text>
  <text xml:space="preserve" style="font-size:72px;font-style:normal;font-variant:normal;font-weight:bold;font-stretch:normal;text-align:start;line-height:125%;writing-mode:lr-tb;text-anchor:start;fill:black;fill-opacity:1;stroke:none;stroke-width:1px;stroke-linecap:butt;stroke-linejoin:miter;stroke-opacity:1;font-family:Serif" x="426.39111" y="608.01465" id="text3130" sodipodi:linespacing="125%"><tspan sodipodi:role="line" id="tspan3132" x="426.39111" y="608.01465">R</tspan><tspan style="font-size:56px" id="tspan3134" dy="20">2</tspan></text>
  <text xml:space="preserve" style="font-size:72px;font-style:normal;font-variant:normal;font-weight:bold;font-stretch:normal;text-align:start;line-height:125%;writing-mode:lr-tb;text-anchor:start;fill:black;fill-opacity:1;stroke:none;stroke-width:1px;stroke-linecap:butt;stroke-linejoin:miter;stroke-opacity:1;font-family:Serif" x="423.64307" y="96.53035" id="text3136" sodipodi:linespacing="125%"><tspan sodipodi:role="line" id="tspan3138" x="423.64307" y="96.53035">R</tspan><tspan style="font-size:56px" id="tspan3140" dy="20">n</tspan></text>
  <text xml:space="preserve" style="font-size:72px;font-style:normal;font-variant:normal;font-weight:bold;font-stretch:normal;text-align:start;line-height:125%;writing-mode:lr-tb;text-anchor:start;fill:black;fill-opacity:1;stroke:none;stroke-width:1px;stroke-linecap:butt;stroke-linejoin:miter;stroke-opacity:1;font-family:Serif" x="1225.3552" y="599.82581" id="text3142" sodipodi:linespacing="125%"><tspan sodipodi:role="line" id="tspan3144" x="1225.3552" y="599.82581">R</tspan><tspan style="font-size:56px" id="tspan3146" dy="20">f</tspan></text>
  <path style="fill:none;stroke:#000000;stroke-width:6.82499981;stroke-linecap:round" d="M 1467.9256,1277.9723 L 1468.598,859.45498 L 1046.8237,857.85489 L 1046.8237,1277.8549 L 1467.9256,1277.9723 z " id="path279" sodipodi:nodetypes="ccccc"/>
  <path style="fill:none;stroke:#000000;stroke-width:6.82499981;stroke-linecap:round" d="M 364.46574,225.48644 L 553.34211,225.48644 L 553.12442,153.14158 L 364.35985,153.18673 L 364.46574,225.48644 z " id="path335" sodipodi:nodetypes="ccccc"/>
  <path style="fill:none;stroke:#000000;stroke-width:6.82499981;stroke-linecap:round" d="M 364.97054,725.59225 L 553.84691,725.59225 L 553.62922,653.24739 L 364.86465,653.29254 L 364.97054,725.59225 z " id="path3386" sodipodi:nodetypes="ccccc"/>
  <path style="fill:none;stroke:#000000;stroke-width:6.82499981;stroke-linecap:round" d="M 366.0413,977.22071 L 554.91767,977.22071 L 554.69998,904.87585 L 365.93541,904.921 L 366.0413,977.22071 z " id="path3388" sodipodi:nodetypes="ccccc"/>
  <path style="fill:none;stroke:#000000;stroke-width:6.82499981;stroke-linecap:round" d="M 1163.7168,724.41789 L 1352.5932,724.41789 L 1352.3755,652.07303 L 1163.6109,652.11818 L 1163.7168,724.41789 z " id="path3390" sodipodi:nodetypes="ccccc"/>
</svg>