<?xml version="1.0" encoding="UTF-8" standalone="no"?>
<svg xmlns:dc="http://purl.org/dc/elements/1.1/" xmlns:cc="http://web.resource.org/cc/" xmlns:rdf="http://www.w3.org/1999/02/22-rdf-syntax-ns#" xmlns:svg="http://www.w3.org/2000/svg" xmlns="http://www.w3.org/2000/svg" xmlns:sodipodi="http://sodipodi.sourceforge.net/DTD/sodipodi-0.dtd" xmlns:inkscape="http://www.inkscape.org/namespaces/inkscape" width="837.88pt" height="471.09799" id="svg158" sodipodi:version="0.32" inkscape:version="0.44.1" sodipodi:docname="Opampvoltagefollower.svg" sodipodi:docbase="/Users/overmac/Desktop/amplis" version="1.0">
  <metadata id="metadata189">
    <rdf:RDF>
      <cc:Work rdf:about="">
        <dc:format>image/svg+xml</dc:format>
        <dc:type rdf:resource="http://purl.org/dc/dcmitype/StillImage"/>
      </cc:Work>
    </rdf:RDF>
  </metadata>
  <sodipodi:namedview inkscape:cy="170.19748" inkscape:cx="450.33113" inkscape:zoom="0.57066229" inkscape:window-height="767" inkscape:window-width="1214" inkscape:pageshadow="2" inkscape:pageopacity="0.0" borderopacity="1.0" bordercolor="#666666" pagecolor="#ffffff" id="base" inkscape:window-x="127" inkscape:window-y="42" inkscape:current-layer="svg158"/>
  <defs id="defs160">
    <marker id="ArrowEnd" viewBox="0 0 10 10" refX="0" refY="5" markerUnits="strokeWidth" markerWidth="4" markerHeight="3" orient="auto">
      <path d="M 0,0 L 10,5 L 0,10 L 0,0 z " id="path163"/>
    </marker>
    <marker id="ArrowStart" viewBox="0 0 10 10" refX="10" refY="5" markerUnits="strokeWidth" markerWidth="4" markerHeight="3" orient="auto">
      <path d="M 10,0 L 0,5 L 10,10 L 10,0 z " id="path166"/>
    </marker>
  </defs>
  <path id="path172" d="M 328.73227,207.11613 L 368.02927,207.11613 L 368.02927,203.01813 L 328.73227,203.01813 L 328.73227,207.11613 z " style="fill:#000000;stroke:none"/>
  <path id="path174" d="M 349.8991,366.30488 L 345.8021,366.30488 L 345.8021,384.27788 L 328.0521,384.27788 L 328.0521,388.37588 L 345.8021,388.37588 L 345.8021,406.27388 L 349.8991,406.27388 L 349.8991,388.37588 L 367.7201,388.37588 L 367.7201,384.27788 L 349.8991,384.27788 L 349.8991,366.30488 z " style="fill:#000000;stroke:none"/>
  <path id="path176" d="M 131.5012,385.549 L 311.5011,385.549" style="fill:none;stroke:#000000;stroke-width:4.875;stroke-linecap:round"/>
  <path id="path178" d="M 611.5011,295.549 L 731.5011,295.549 L 731.5011,25.5491 L 191.5012,25.5491 L 191.5012,205.549 L 311.5011,205.549" style="fill:none;stroke:#000000;stroke-width:4.875;stroke-linecap:round"/>
  <path id="path180" d="M 851.5011,295.549 L 731.5011,295.549" style="fill:none;stroke:#000000;stroke-width:4.875;stroke-linecap:round"/>
  <path id="path182" d="M 862.7511,295.549 C 862.7511,289.338 857.7161,284.299 851.5011,284.299 C 845.2901,284.299 840.2511,289.334 840.2511,295.549 C 840.2511,301.76 845.2861,306.799 851.5011,306.799 C 857.7121,306.799 862.7511,301.764 862.7511,295.549" style="fill:#000000;stroke:none"/>
  <path id="path184" d="M 742.7511,295.549 C 742.7511,289.338 737.7161,284.299 731.5011,284.299 C 725.2901,284.299 720.2511,289.334 720.2511,295.549 C 720.2511,301.76 725.2861,306.799 731.5011,306.799 C 737.7121,306.799 742.7511,301.764 742.7511,295.549" style="fill:#000000;stroke:none"/>
  <path id="path186" d="M 142.7512,385.549 C 142.7512,379.338 137.716,374.299 131.5012,374.299 C 125.2903,374.299 120.2512,379.334 120.2512,385.549 C 120.2512,391.76 125.2864,396.799 131.5012,396.799 C 137.7121,396.799 142.7512,391.764 142.7512,385.549" style="fill:#000000;stroke:none"/>
  <text xml:space="preserve" style="font-size:72px;font-style:normal;font-variant:normal;font-weight:bold;font-stretch:normal;text-align:start;line-height:125%;writing-mode:lr-tb;text-anchor:start;fill:#000000;fill-opacity:1;stroke:none;stroke-width:1px;stroke-linecap:butt;stroke-linejoin:miter;stroke-opacity:1;font-family:Serif" x="869.97498" y="297.48401" id="text3009" sodipodi:linespacing="125%"><tspan sodipodi:role="line" id="tspan3011" x="869.97498" y="297.48401">V</tspan><tspan style="font-size:56px" dy="20" id="tspan87">s</tspan></text>
  <text xml:space="preserve" style="font-size:72px;font-style:normal;font-variant:normal;font-weight:bold;font-stretch:normal;text-align:start;line-height:125%;writing-mode:lr-tb;text-anchor:start;fill:#000000;fill-opacity:1;stroke:none;stroke-width:1px;stroke-linecap:butt;stroke-linejoin:miter;stroke-opacity:1;font-family:Serif" x="18.936003" y="413.83029" id="text1513" sodipodi:linespacing="125%"><tspan sodipodi:role="line" id="tspan1515" x="18.936003" y="413.83029">V</tspan><tspan style="font-size:56px" dy="20" id="tspan49">e</tspan></text>
  <path id="path297" d="M 610.75298,446.13254 L 609.31628,146.56009 L 311.90463,146.41757 L 311.90463,446.41758 L 610.75298,446.13254 z " style="fill:none;stroke:#000000;stroke-width:4.875;stroke-linecap:round" sodipodi:nodetypes="ccccc"/>
</svg>