<?xml version="1.0" encoding="UTF-8" standalone="no"?>
<svg
   width="40.560001cm"
   height="23.02cm"
   id="svg67"
   sodipodi:version="0.32"
   inkscape:version="1.4 (86a8ad7, 2024-10-11)"
   sodipodi:docname="Aopinverting.svg"
   version="1.0"
   xmlns:inkscape="http://www.inkscape.org/namespaces/inkscape"
   xmlns:sodipodi="http://sodipodi.sourceforge.net/DTD/sodipodi-0.dtd"
   xmlns="http://www.w3.org/2000/svg"
   xmlns:svg="http://www.w3.org/2000/svg"
   xmlns:rdf="http://www.w3.org/1999/02/22-rdf-syntax-ns#"
   xmlns:cc="http://creativecommons.org/ns#"
   xmlns:dc="http://purl.org/dc/elements/1.1/">
  <metadata
     id="metadata132">
    <rdf:RDF>
      <cc:Work
         rdf:about="">
        <dc:format>image/svg+xml</dc:format>
        <dc:type
           rdf:resource="http://purl.org/dc/dcmitype/StillImage" />
      </cc:Work>
    </rdf:RDF>
  </metadata>
  <sodipodi:namedview
     inkscape:cy="409.74838"
     inkscape:cx="460.96693"
     inkscape:zoom="0.17571759"
     inkscape:window-height="768"
     inkscape:window-width="1245"
     inkscape:pageshadow="2"
     inkscape:pageopacity="0.0"
     borderopacity="1.0"
     bordercolor="#666666"
     pagecolor="#ffffff"
     id="base"
     inkscape:window-x="131"
     inkscape:window-y="42"
     inkscape:current-layer="svg67"
     inkscape:showpageshadow="0"
     inkscape:pagecheckerboard="0"
     inkscape:deskcolor="#d1d1d1"
     inkscape:document-units="cm"
     inkscape:window-maximized="0" />
  <defs
     id="defs69">
    <marker
       id="ArrowEnd"
       viewBox="0 0 10 10"
       refX="0"
       refY="5"
       markerUnits="strokeWidth"
       markerWidth="4"
       markerHeight="3"
       orient="auto">
      <path
         d="M 0,0 L 10,5 L 0,10 L 0,0 z "
         id="path72" />
    </marker>
    <marker
       id="ArrowStart"
       viewBox="0 0 10 10"
       refX="10"
       refY="5"
       markerUnits="strokeWidth"
       markerWidth="4"
       markerHeight="3"
       orient="auto">
      <path
         d="M 10,0 L 0,5 L 10,10 L 10,0 z "
         id="path75" />
    </marker>
  </defs>
  <path
     id="path81"
     d="M 651.984,387.06146 L 691.281,387.06146 L 691.281,382.96446 L 651.984,382.96446 L 651.984,387.06146 z "
     style="fill:#000000;stroke:none" />
  <path
     id="path83"
     d="M 673.558,546.25521 L 669.461,546.25521 L 669.461,564.22821 L 651.711,564.22821 L 651.711,568.32521 L 669.461,568.32521 L 669.461,586.22421 L 673.558,586.22421 L 673.558,568.32521 L 691.379,568.32521 L 691.379,564.22821 L 673.558,564.22821 L 673.558,546.25521 z "
     style="fill:#000000;stroke:none" />
  <path
     id="path85"
     d="M 432.66,386.26267 L 485.16,386.26267"
     style="fill:none;stroke:#000000;stroke-width:4.875;stroke-linecap:round" />
  <path
     id="path87"
     d="M 297.66,386.26267 L 245.1601,386.26267"
     style="fill:none;stroke:#000000;stroke-width:4.875;stroke-linecap:round" />
  <path
     id="path91"
     d="M 822.66,146.26277 L 875.16,146.26277"
     style="fill:none;stroke:#000000;stroke-width:4.875;stroke-linecap:round" />
  <path
     id="path93"
     d="M 687.66,146.26277 L 635.16,146.26277"
     style="fill:none;stroke:#000000;stroke-width:4.875;stroke-linecap:round" />
  <path
     id="path97"
     d="M 2652.661,1106.2637 L 2705.161,1106.2637"
     style="fill:none;stroke:#000000;stroke-width:4.875;stroke-linecap:round" />
  <path
     id="path99"
     d="M 2517.661,1106.2637 L 2465.161,1106.2637"
     style="fill:none;stroke:#000000;stroke-width:4.875;stroke-linecap:round" />
  <path
     id="path103"
     d="M 545.16,716.26267 L 545.16,656.26267"
     style="fill:none;stroke:#000000;stroke-width:4.875;stroke-linecap:round" />
  <path
     id="path105"
     d="M 605.16,716.26267 L 485.16,716.26267"
     style="fill:none;stroke:#000000;stroke-width:4.875;stroke-linecap:round" />
  <path
     id="path107"
     d="M 578.91,742.51267 L 511.41,742.51267"
     style="fill:none;stroke:#000000;stroke-width:4.875;stroke-linecap:round" />
  <path
     id="path109"
     d="M 552.66,768.76267 L 537.66,768.76267"
     style="fill:none;stroke:#000000;stroke-width:4.875;stroke-linecap:round" />
  <path
     id="path111"
     d="M 635.16,566.26267 L 545.16,566.26267 L 545.16,656.26267"
     style="fill:none;stroke:#000000;stroke-width:4.875;stroke-linecap:round" />
  <path
     id="path113"
     d="M 635.16,386.26267 L 485.16,386.26267"
     style="fill:none;stroke:#000000;stroke-width:4.875;stroke-linecap:round" />
  <path
     id="path115"
     d="M 545.16,386.26267 L 545.16,146.26277 L 635.16,146.26277"
     style="fill:none;stroke:#000000;stroke-width:4.875;stroke-linecap:round" />
  <path
     id="path117"
     d="M 935.16,476.26267 L 1055.16,476.26267 L 1055.16,146.26277 L 875.16,146.26277"
     style="fill:none;stroke:#000000;stroke-width:4.875;stroke-linecap:round" />
  <path
     id="path119"
     d="M 1175.161,476.26267 L 1055.16,476.26267"
     style="fill:none;stroke:#000000;stroke-width:4.875;stroke-linecap:round" />
  <path
     id="path121"
     d="M 185.1601,386.26267 L 245.1601,386.26267"
     style="fill:none;stroke:#000000;stroke-width:4.875;stroke-linecap:round" />
  <path
     id="path123"
     d="M 196.4101,386.26267 C 196.4101,380.05167 191.3749,375.01267 185.1601,375.01267 C 178.9492,375.01267 173.9101,380.04767 173.9101,386.26267 C 173.9101,392.47367 178.9453,397.51267 185.1601,397.51267 C 191.371,397.51267 196.4101,392.47767 196.4101,386.26267"
     style="fill:#000000;stroke:none" />
  <path
     id="path125"
     d="M 556.41,386.26267 C 556.41,380.05167 551.375,375.01267 545.16,375.01267 C 538.949,375.01267 533.91,380.04767 533.91,386.26267 C 533.91,392.47367 538.945,397.51267 545.16,397.51267 C 551.371,397.51267 556.41,392.47767 556.41,386.26267"
     style="fill:#000000;stroke:none" />
  <path
     id="path127"
     d="M 1066.41,476.26267 C 1066.41,470.05167 1061.375,465.01267 1055.16,465.01267 C 1048.949,465.01267 1043.91,470.04767 1043.91,476.26267 C 1043.91,482.47367 1048.945,487.51267 1055.16,487.51267 C 1061.371,487.51267 1066.41,482.47767 1066.41,476.26267"
     style="fill:#000000;stroke:none" />
  <path
     id="path129"
     d="M 1186.411,476.26267 C 1186.411,470.05167 1181.371,465.01267 1175.161,465.01267 C 1168.951,465.01267 1163.911,470.04767 1163.911,476.26267 C 1163.911,482.47367 1168.951,487.51267 1175.161,487.51267 C 1181.371,487.51267 1186.411,482.47767 1186.411,476.26267"
     style="fill:#000000;stroke:none" />
  <text
     xml:space="preserve"
     style="font-style:normal;font-variant:normal;font-weight:bold;font-stretch:normal;line-height:0%;font-family:serif;text-align:start;writing-mode:lr-tb;text-anchor:start;fill:#000000;fill-opacity:1;stroke:none;stroke-width:1px;stroke-linecap:butt;stroke-linejoin:miter;stroke-opacity:1"
     x="1214.3533"
     y="457.75922"
     id="text3009"><tspan
       sodipodi:role="line"
       id="tspan3011"
       x="1214.3533"
       y="457.75922"
       style="font-size:72px;line-height:1.25;font-family:serif">V</tspan><tspan
       style="font-size:56px;font-family:serif"
       dy="20"
       id="tspan87">s</tspan></text>
  <text
     xml:space="preserve"
     style="font-style:normal;font-variant:normal;font-weight:bold;font-stretch:normal;line-height:0%;font-family:serif;text-align:start;writing-mode:lr-tb;text-anchor:start;fill:#000000;fill-opacity:1;stroke:none;stroke-width:1px;stroke-linecap:butt;stroke-linejoin:miter;stroke-opacity:1"
     x="723.75854"
     y="69.194717"
     id="text1995"><tspan
       sodipodi:role="line"
       id="tspan1997"
       x="723.75854"
       y="69.194717"
       style="font-size:72px;line-height:1.25;font-family:serif">R</tspan><tspan
       style="font-size:56px;font-family:serif"
       dy="20"
       id="tspan65">2</tspan><tspan
       style="font-size:56px;font-family:serif"
       id="tspan1999" /></text>
  <text
     xml:space="preserve"
     style="font-style:normal;font-variant:normal;font-weight:bold;font-stretch:normal;line-height:0%;font-family:serif;text-align:start;writing-mode:lr-tb;text-anchor:start;fill:#000000;fill-opacity:1;stroke:none;stroke-width:1px;stroke-linecap:butt;stroke-linejoin:miter;stroke-opacity:1"
     x="306.60629"
     y="317.62"
     id="text1505"><tspan
       sodipodi:role="line"
       id="tspan1507"
       x="306.60629"
       y="317.62"
       style="font-size:72px;line-height:1.25;font-family:serif">R</tspan><tspan
       style="font-size:56px;font-family:serif"
       dy="20"
       id="tspan45">1</tspan></text>
  <text
     xml:space="preserve"
     style="font-style:normal;font-variant:normal;font-weight:bold;font-stretch:normal;line-height:0%;font-family:serif;text-align:start;writing-mode:lr-tb;text-anchor:start;fill:#000000;fill-opacity:1;stroke:none;stroke-width:1px;stroke-linecap:butt;stroke-linejoin:miter;stroke-opacity:1"
     x="36.244747"
     y="399.0542"
     id="text1513"><tspan
       sodipodi:role="line"
       id="tspan1515"
       x="36.244747"
       y="399.0542"
       style="font-size:72px;line-height:1.25;font-family:serif">V</tspan><tspan
       style="font-size:56px;font-family:serif"
       dy="20"
       id="tspan49">e</tspan></text>
  <path
     id="path297"
     d="M 934.43098,624.41832 L 932.99428,324.84588 L 635.58264,324.70336 L 635.58264,624.70336 L 934.43098,624.41832 z "
     style="fill:none;stroke:#000000;stroke-width:4.875;stroke-linecap:round"
     sodipodi:nodetypes="ccccc" />
  <path
     id="path1520"
     d="M 687.95996,115.55039 L 821.79222,115.62829 L 821.82742,174.89203 L 688.14994,175.00376 L 687.95996,115.55039 z "
     style="fill:none;stroke:#000000;stroke-width:4.875;stroke-linecap:round"
     sodipodi:nodetypes="ccccc" />
  <path
     id="path2754"
     d="M 298.80782,356.4706 L 432.64008,356.5485 L 432.67528,415.81224 L 298.9978,415.92397 L 298.80782,356.4706 z "
     style="fill:none;stroke:#000000;stroke-width:4.875;stroke-linecap:round"
     sodipodi:nodetypes="ccccc" />
</svg>
