<?xml version="1.0" encoding="UTF-8" standalone="no"?>
<svg
   width="1252.6018"
   height="628.95996"
   id="svg114"
   sodipodi:version="0.32"
   inkscape:version="1.4 (86a8ad7, 2024-10-11)"
   sodipodi:docname="Aopnoninverting.svg"
   version="1.0"
   inkscape:output_extension="org.inkscape.output.svg.inkscape"
   xmlns:inkscape="http://www.inkscape.org/namespaces/inkscape"
   xmlns:sodipodi="http://sodipodi.sourceforge.net/DTD/sodipodi-0.dtd"
   xmlns="http://www.w3.org/2000/svg"
   xmlns:svg="http://www.w3.org/2000/svg"
   xmlns:rdf="http://www.w3.org/1999/02/22-rdf-syntax-ns#"
   xmlns:cc="http://creativecommons.org/ns#"
   xmlns:dc="http://purl.org/dc/elements/1.1/">
  <metadata
     id="metadata173">
    <rdf:RDF>
      <cc:Work
         rdf:about="">
        <dc:format>image/svg+xml</dc:format>
        <dc:type
           rdf:resource="http://purl.org/dc/dcmitype/StillImage" />
      </cc:Work>
    </rdf:RDF>
  </metadata>
  <sodipodi:namedview
     inkscape:cy="458.47626"
     inkscape:cx="737.68672"
     inkscape:zoom="0.31517444"
     inkscape:window-height="991"
     inkscape:window-width="1920"
     inkscape:pageshadow="2"
     inkscape:pageopacity="0.0"
     borderopacity="1.0"
     bordercolor="#666666"
     pagecolor="#ffffff"
     id="base"
     inkscape:window-x="-9"
     inkscape:window-y="-9"
     inkscape:current-layer="svg114"
     inkscape:showpageshadow="0"
     inkscape:pagecheckerboard="0"
     inkscape:deskcolor="#d1d1d1"
     inkscape:window-maximized="1" />
  <defs
     id="defs116">
    <marker
       id="ArrowEnd"
       viewBox="0 0 10 10"
       refX="0"
       refY="5"
       markerUnits="strokeWidth"
       markerWidth="4"
       markerHeight="3"
       orient="auto">
      <path
         d="M 0,0 10,5 0,10 Z"
         id="path119" />
    </marker>
    <marker
       id="ArrowStart"
       viewBox="0 0 10 10"
       refX="10"
       refY="5"
       markerUnits="strokeWidth"
       markerWidth="4"
       markerHeight="3"
       orient="auto">
      <path
         d="M 10,0 0,5 10,10 Z"
         id="path122" />
    </marker>
  </defs>
  <path
     id="path128"
     d="m 619.08021,245.71299 h 39.297 v -4.098 h -39.297 z"
     style="fill:#000000;stroke:none" />
  <path
     id="path130"
     d="m 640.65921,83.643746 h -4.098 V 65.670949 h -17.75 v -4.0981 h 17.75 v -17.898 h 4.098 v 17.898 h 17.82 v 4.0981 h -17.82 z"
     style="fill:#000000;stroke:none" />
  <path
     id="path132"
     d="m 369.80721,422.76695 h 52.5"
     style="fill:none;stroke:#000000;stroke-width:4.875;stroke-linecap:round" />
  <path
     id="path134"
     d="m 234.80721,422.76695 h -52.5"
     style="fill:none;stroke:#000000;stroke-width:4.875;stroke-linecap:round" />
  <path
     id="path138"
     d="m 789.80721,422.76695 h 52.5"
     style="fill:none;stroke:#000000;stroke-width:4.875;stroke-linecap:round" />
  <path
     id="path140"
     d="m 654.80721,422.76695 h -52.5"
     style="fill:none;stroke:#000000;stroke-width:4.875;stroke-linecap:round" />
  <path
     id="path144"
     d="m 62.30731,572.76695 v -60"
     style="fill:none;stroke:#000000;stroke-width:4.875;stroke-linecap:round" />
  <path
     id="path152"
     d="M 182.30721,422.76695 H 62.30731 v 90"
     style="fill:none;stroke:#000000;stroke-width:4.875;stroke-linecap:round" />
  <path
     id="path154"
     d="m 602.30721,422.76695 h -180"
     style="fill:none;stroke:#000000;stroke-width:4.875;stroke-linecap:round" />
  <path
     id="path156"
     d="m 902.30721,152.76695 h 120.00099 v 270 H 842.30721"
     style="fill:none;stroke:#000000;stroke-width:4.875;stroke-linecap:round" />
  <path
     id="path158"
     d="m 512.30721,422.76695 v -180 h 90"
     style="fill:none;stroke:#000000;stroke-width:4.875;stroke-linecap:round" />
  <path
     id="path160"
     d="m 422.30721,62.767046 h 180"
     style="fill:none;stroke:#000000;stroke-width:4.875;stroke-linecap:round" />
  <path
     id="path162"
     d="m 1142.3082,152.76695 h -120"
     style="fill:none;stroke:#000000;stroke-width:4.875;stroke-linecap:round" />
  <path
     id="path164"
     d="m 433.55721,62.767046 c 0,-6.211 -5.035,-11.25 -11.25,-11.25 -6.211,0 -11.25,5.035 -11.25,11.25 0,6.211 5.035,11.25 11.25,11.25 6.211,0 11.25,-5.0349 11.25,-11.25"
     style="fill:#000000;stroke:none" />
  <path
     id="path166"
     d="m 523.55721,422.76695 c 0,-6.211 -5.035,-11.25 -11.25,-11.25 -6.211,0 -11.25,5.035 -11.25,11.25 0,6.211 5.035,11.25 11.25,11.25 6.211,0 11.25,-5.035 11.25,-11.25"
     style="fill:#000000;stroke:none" />
  <path
     id="path168"
     d="m 1033.5582,152.76695 c 0,-6.211 -5.04,-11.25 -11.25,-11.25 -6.21,0 -11.25,5.035 -11.25,11.25 0,6.211 5.04,11.25 11.25,11.25 6.21,0 11.25,-5.035 11.25,-11.25"
     style="fill:#000000;stroke:none" />
  <path
     id="path170"
     d="m 1153.5582,152.76695 c 0,-6.211 -5.04,-11.25 -11.25,-11.25 -6.21,0 -11.25,5.035 -11.25,11.25 0,6.211 5.04,11.25 11.25,11.25 6.21,0 11.25,-5.035 11.25,-11.25"
     style="fill:#000000;stroke:none" />
  <text
     xml:space="preserve"
     style="font-style:normal;font-variant:normal;font-weight:bold;font-stretch:normal;line-height:0%;font-family:serif;text-align:start;writing-mode:lr-tb;text-anchor:start;fill:#000000;fill-opacity:1;stroke:none;stroke-width:1px;stroke-linecap:butt;stroke-linejoin:miter;stroke-opacity:1"
     x="1177.2577"
     y="138.61584"
     id="text3009"><tspan
       sodipodi:role="line"
       id="tspan3011"
       x="1177.2577"
       y="138.61584"
       style="font-size:72px;line-height:1.25;font-family:serif">V</tspan><tspan
       style="font-size:56px;font-family:serif"
       dy="20"
       id="tspan87">s</tspan></text>
  <text
     xml:space="preserve"
     style="font-style:normal;font-variant:normal;font-weight:bold;font-stretch:normal;line-height:0%;font-family:serif;text-align:start;writing-mode:lr-tb;text-anchor:start;fill:#000000;fill-opacity:1;stroke:none;stroke-width:1px;stroke-linecap:butt;stroke-linejoin:miter;stroke-opacity:1"
     x="314.70224"
     y="102.94388"
     id="text1513"><tspan
       sodipodi:role="line"
       id="tspan1515"
       x="314.70224"
       y="102.94388"
       style="font-size:72px;line-height:1.25;font-family:serif">V</tspan><tspan
       style="font-size:56px;font-family:serif"
       dy="20"
       id="tspan49">e</tspan></text>
  <text
     xml:space="preserve"
     style="font-style:normal;font-variant:normal;font-weight:bold;font-stretch:normal;line-height:0%;font-family:serif;text-align:start;writing-mode:lr-tb;text-anchor:start;fill:#000000;fill-opacity:1;stroke:none;stroke-width:1px;stroke-linecap:butt;stroke-linejoin:miter;stroke-opacity:1"
     x="674.4223"
     y="530.22736"
     id="text3005"><tspan
       sodipodi:role="line"
       id="tspan3007"
       x="674.4223"
       y="530.22736"
       style="font-size:72px;line-height:1.25;font-family:serif">R</tspan><tspan
       style="font-size:56px;font-family:serif"
       dy="20"
       id="tspan83">2</tspan></text>
  <text
     xml:space="preserve"
     style="font-style:normal;font-variant:normal;font-weight:bold;font-stretch:normal;line-height:0%;font-family:serif;text-align:start;writing-mode:lr-tb;text-anchor:start;fill:#000000;fill-opacity:1;stroke:none;stroke-width:1px;stroke-linecap:butt;stroke-linejoin:miter;stroke-opacity:1"
     x="255.49384"
     y="522.8894"
     id="text3001"><tspan
       sodipodi:role="line"
       id="tspan3003"
       x="255.49384"
       y="522.8894"
       style="font-size:72px;line-height:1.25;font-family:serif">R</tspan><tspan
       style="font-size:56px;font-family:serif"
       dy="20"
       id="tspan79">1</tspan></text>
  <path
     id="path297"
     d="M 901.30654,302.15363 899.86984,2.5811883 602.45819,2.4386683 V 302.43867 Z"
     style="fill:none;stroke:#000000;stroke-width:4.875;stroke-linecap:round"
     sodipodi:nodetypes="ccccc" />
  <path
     id="path1520"
     d="m 234.71789,393.328 133.83226,0.0779 0.0352,59.26374 -133.67748,0.11173 z"
     style="fill:none;stroke:#000000;stroke-width:4.875;stroke-linecap:round"
     sodipodi:nodetypes="ccccc" />
  <path
     id="path2750"
     d="m 655.26451,392.65688 133.83226,0.0779 0.0352,59.26374 -133.67748,0.11173 z"
     style="fill:none;stroke:#000000;stroke-width:4.875;stroke-linecap:round"
     sodipodi:nodetypes="ccccc" />
  <path
     id="path105"
     d="m 122.4375,574.02246 h -120"
     style="fill:none;stroke:#000000;stroke-width:4.875;stroke-linecap:round" />
  <path
     id="path107"
     d="m 96.1875,600.27246 h -67.5"
     style="fill:none;stroke:#000000;stroke-width:4.875;stroke-linecap:round" />
  <path
     id="path109"
     d="m 69.9375,626.52246 h -15"
     style="fill:none;stroke:#000000;stroke-width:4.875;stroke-linecap:round" />
</svg>
