<?xml version="1.0" encoding="UTF-8" standalone="no"?>
<svg
   width="39.220001cm"
   height="32.439999cm"
   id="svg285"
   sodipodi:version="0.32"
   inkscape:version="1.4 (86a8ad7, 2024-10-11)"
   sodipodi:docname="Opamp-differential_eu_pyspace.svg"
   version="1.0"
   xmlns:inkscape="http://www.inkscape.org/namespaces/inkscape"
   xmlns:sodipodi="http://sodipodi.sourceforge.net/DTD/sodipodi-0.dtd"
   xmlns="http://www.w3.org/2000/svg"
   xmlns:svg="http://www.w3.org/2000/svg"
   xmlns:rdf="http://www.w3.org/1999/02/22-rdf-syntax-ns#"
   xmlns:cc="http://creativecommons.org/ns#"
   xmlns:dc="http://purl.org/dc/elements/1.1/">
  <metadata
     id="metadata468">
    <rdf:RDF>
      <cc:Work
         rdf:about="">
        <dc:format>image/svg+xml</dc:format>
        <dc:type
           rdf:resource="http://purl.org/dc/dcmitype/StillImage" />
      </cc:Work>
    </rdf:RDF>
  </metadata>
  <sodipodi:namedview
     inkscape:cy="313.73481"
     inkscape:cx="565.3849"
     inkscape:zoom="0.60401331"
     inkscape:window-height="991"
     inkscape:window-width="1920"
     inkscape:pageshadow="2"
     inkscape:pageopacity="0.0"
     borderopacity="1.0"
     bordercolor="#666666"
     pagecolor="#ffffff"
     id="base"
     inkscape:window-x="-9"
     inkscape:window-y="-9"
     inkscape:current-layer="svg285"
     inkscape:showpageshadow="0"
     inkscape:pagecheckerboard="0"
     inkscape:deskcolor="#d1d1d1"
     inkscape:document-units="cm"
     inkscape:window-maximized="1" />
  <defs
     id="defs287">
    <marker
       id="ArrowEnd"
       viewBox="0 0 10 10"
       refX="0"
       refY="5"
       markerUnits="strokeWidth"
       markerWidth="4"
       markerHeight="3"
       orient="auto">
      <path
         d="M 0,0 L 10,5 L 0,10 L 0,0 z "
         id="path290" />
    </marker>
    <marker
       id="ArrowStart"
       viewBox="0 0 10 10"
       refX="10"
       refY="5"
       markerUnits="strokeWidth"
       markerWidth="4"
       markerHeight="3"
       orient="auto">
      <path
         d="M 10,0 L 0,5 L 10,10 L 10,0 z "
         id="path293" />
    </marker>
  </defs>
  <path
     id="path297"
     d="M 927.661,625.228 L 927.661,325.228 L 627.661,325.228 L 627.661,625.228 L 927.661,625.228 z "
     style="fill:none;stroke:#000000;stroke-width:4.875;stroke-linecap:round"
     sodipodi:nodetypes="ccccc" />
  <path
     id="path299"
     d="M 644.481,387.2003 L 683.771,387.2003 L 683.771,383.1003 L 644.481,383.1003 L 644.481,387.2003 z "
     style="fill:#000000;stroke:none" />
  <path
     id="path301"
     d="M 666.061,545.17254 L 661.961,545.17254 L 661.961,563.14254 L 644.211,563.14254 L 644.211,567.24254 L 661.961,567.24254 L 661.961,585.13254 L 666.061,585.13254 L 666.061,567.24254 L 683.881,567.24254 L 683.881,563.14254 L 666.061,563.14254 L 666.061,545.17254 z "
     style="fill:#000000;stroke:none" />
  <path
     id="path303"
     d="M 537.661,707.728 L 537.661,655.228"
     style="fill:none;stroke:#000000;stroke-width:4.875;stroke-linecap:round" />
  <path
     id="path305"
     d="M 537.661,842.728 L 537.661,895.228"
     style="fill:none;stroke:#000000;stroke-width:4.875;stroke-linecap:round" />
  <path
     id="path309"
     d="M 815.161,145.228 L 867.661,145.228"
     style="fill:none;stroke:#000000;stroke-width:4.875;stroke-linecap:round" />
  <path
     id="path311"
     d="M 680.161,145.228 L 627.661,145.228"
     style="fill:none;stroke:#000000;stroke-width:4.875;stroke-linecap:round" />
  <path
     id="path417"
     d="M 395.161,385.228 L 447.661,385.228"
     style="fill:none;stroke:#000000;stroke-width:4.875;stroke-linecap:round" />
  <path
     id="path419"
     d="M 260.161,385.228 L 207.661,385.228"
     style="fill:none;stroke:#000000;stroke-width:4.875;stroke-linecap:round" />
  <path
     id="path423"
     d="M 395.161,565.228 L 447.661,565.228"
     style="fill:none;stroke:#000000;stroke-width:4.875;stroke-linecap:round" />
  <path
     id="path425"
     d="M 260.161,565.228 L 207.661,565.228"
     style="fill:none;stroke:#000000;stroke-width:4.875;stroke-linecap:round" />
  <path
     id="path429"
     d="M 537.661,1045.228 L 537.661,985.228"
     style="fill:none;stroke:#000000;stroke-width:4.875;stroke-linecap:round" />
  <path
     id="path431"
     d="M 597.661,1045.228 L 477.661,1045.228"
     style="fill:none;stroke:#000000;stroke-width:4.875;stroke-linecap:round" />
  <path
     id="path433"
     d="M 571.411,1071.478 L 503.911,1071.478"
     style="fill:none;stroke:#000000;stroke-width:4.875;stroke-linecap:round" />
  <path
     id="path435"
     d="M 545.161,1097.728 L 530.161,1097.728"
     style="fill:none;stroke:#000000;stroke-width:4.875;stroke-linecap:round" />
  <path
     id="path437"
     d="M 627.661,565.228 L 537.661,565.228 L 537.661,655.228"
     style="fill:none;stroke:#000000;stroke-width:4.875;stroke-linecap:round" />
  <path
     id="path439"
     d="M 537.661,895.228 L 537.661,985.228"
     style="fill:none;stroke:#000000;stroke-width:4.875;stroke-linecap:round" />
  <path
     id="path441"
     d="M 627.661,385.228 L 447.661,385.228"
     style="fill:none;stroke:#000000;stroke-width:4.875;stroke-linecap:round" />
  <path
     id="path443"
     d="M 537.661,385.228 L 537.661,145.228 L 627.661,145.228"
     style="fill:none;stroke:#000000;stroke-width:4.875;stroke-linecap:round" />
  <path
     id="path445"
     d="M 927.661,475.228 L 1017.661,475.228 L 1017.661,145.228 L 867.661,145.228"
     style="fill:none;stroke:#000000;stroke-width:4.875;stroke-linecap:round" />
  <path
     id="path447"
     d="M 447.661,565.228 L 537.661,565.228"
     style="fill:none;stroke:#000000;stroke-width:4.875;stroke-linecap:round" />
  <path
     id="path449"
     d="M 147.661,385.228 L 207.661,385.228"
     style="fill:none;stroke:#000000;stroke-width:4.875;stroke-linecap:round" />
  <path
     id="path451"
     d="M 207.661,565.228 L 147.661,565.228"
     style="fill:none;stroke:#000000;stroke-width:4.875;stroke-linecap:round" />
  <path
     id="path453"
     d="M 1167.661,475.228 L 1017.661,475.228"
     style="fill:none;stroke:#000000;stroke-width:4.875;stroke-linecap:round" />
  <path
     id="path455"
     d="M 158.911,385.228 C 158.911,379.018 153.871,373.978 147.661,373.978 C 141.451,373.978 136.411,379.008 136.411,385.228 C 136.411,391.438 141.451,396.478 147.661,396.478 C 153.871,396.478 158.911,391.438 158.911,385.228"
     style="fill:#000000;stroke:none" />
  <path
     id="path457"
     d="M 158.911,565.228 C 158.911,559.018 153.871,553.978 147.661,553.978 C 141.451,553.978 136.411,559.008 136.411,565.228 C 136.411,571.438 141.451,576.478 147.661,576.478 C 153.871,576.478 158.911,571.438 158.911,565.228"
     style="fill:#000000;stroke:none" />
  <path
     id="path459"
     d="M 548.911,565.228 C 548.911,559.018 543.871,553.978 537.661,553.978 C 531.451,553.978 526.411,559.008 526.411,565.228 C 526.411,571.438 531.451,576.478 537.661,576.478 C 543.871,576.478 548.911,571.438 548.911,565.228"
     style="fill:#000000;stroke:none" />
  <path
     id="path461"
     d="M 548.911,385.228 C 548.911,379.018 543.871,373.978 537.661,373.978 C 531.451,373.978 526.411,379.008 526.411,385.228 C 526.411,391.438 531.451,396.478 537.661,396.478 C 543.871,396.478 548.911,391.438 548.911,385.228"
     style="fill:#000000;stroke:none" />
  <path
     id="path463"
     d="M 1028.911,475.228 C 1028.911,469.018 1023.871,463.978 1017.661,463.978 C 1011.451,463.978 1006.411,469.008 1006.411,475.228 C 1006.411,481.438 1011.451,486.478 1017.661,486.478 C 1023.871,486.478 1028.911,481.438 1028.911,475.228"
     style="fill:#000000;stroke:none" />
  <path
     id="path465"
     d="M 1178.911,475.228 C 1178.911,469.018 1173.871,463.978 1167.661,463.978 C 1161.451,463.978 1156.411,469.008 1156.411,475.228 C 1156.411,481.438 1161.451,486.478 1167.661,486.478 C 1173.871,486.478 1178.911,481.438 1178.911,475.228"
     style="fill:#000000;stroke:none" />
  <text
     xml:space="preserve"
     style="font-style:normal;font-variant:normal;font-weight:bold;font-stretch:normal;line-height:0%;font-family:serif;text-align:start;writing-mode:lr-tb;text-anchor:start;fill:#000000;fill-opacity:1;stroke:none;stroke-width:1px;stroke-linecap:butt;stroke-linejoin:miter;stroke-opacity:1"
     x="292.15121"
     y="681.26758"
     id="text3005"><tspan
       sodipodi:role="line"
       id="tspan3007"
       x="292.15121"
       y="681.26758"
       style="font-size:72px;line-height:1.25;font-family:serif">R</tspan><tspan
       style="font-size:56px;font-family:serif"
       dy="20"
       id="tspan83">2</tspan></text>
  <text
     xml:space="preserve"
     style="font-style:normal;font-variant:normal;font-weight:bold;font-stretch:normal;line-height:0%;font-family:serif;text-align:start;writing-mode:lr-tb;text-anchor:start;fill:#000000;fill-opacity:1;stroke:none;stroke-width:1px;stroke-linecap:butt;stroke-linejoin:miter;stroke-opacity:1"
     x="292.42465"
     y="314.61374"
     id="text3001"><tspan
       sodipodi:role="line"
       id="tspan3003"
       x="292.42465"
       y="314.61374"
       style="font-size:72px;line-height:1.25;font-family:serif">R</tspan><tspan
       style="font-size:56px;font-family:serif"
       dy="20"
       id="tspan79">1</tspan></text>
  <text
     xml:space="preserve"
     style="font-style:normal;font-variant:normal;font-weight:bold;font-stretch:normal;font-size:72px;line-height:0%;font-family:serif;text-align:start;writing-mode:lr-tb;text-anchor:start;fill:#000000;fill-opacity:1;stroke:none;stroke-width:1px;stroke-linecap:butt;stroke-linejoin:miter;stroke-opacity:1"
     x="34.482338"
     y="370.84665"
     id="text2068"><tspan
       style="font-size:56px;font-family:serif"
       dy="0 20"
       id="tspan2592"><tspan
   id="tspan2003"
   style="font-size:72px;font-family:serif">V</tspan>1</tspan></text>
  <text
     xml:space="preserve"
     style="font-style:normal;font-variant:normal;font-weight:bold;font-stretch:normal;font-size:72px;line-height:0%;font-family:serif;text-align:start;writing-mode:lr-tb;text-anchor:start;fill:#000000;fill-opacity:1;stroke:none;stroke-width:1px;stroke-linecap:butt;stroke-linejoin:miter;stroke-opacity:1"
     x="34.2089"
     y="582.7605"
     id="text2072"><tspan
       style="font-size:56px;font-family:serif"
       dy="0 20"
       id="tspan2596"><tspan
   id="tspan2001"
   style="font-size:72px;font-family:serif">V</tspan>2</tspan></text>
  <text
     xml:space="preserve"
     style="font-style:normal;font-variant:normal;font-weight:bold;font-stretch:normal;line-height:0%;font-family:serif;text-align:start;writing-mode:lr-tb;text-anchor:start;fill:#000000;fill-opacity:1;stroke:none;stroke-width:1px;stroke-linecap:butt;stroke-linejoin:miter;stroke-opacity:1"
     x="949.18463"
     y="568.71295"
     id="text3009"><tspan
       style="font-size:72px;line-height:1.25;font-family:serif"
       id="tspan87">out</tspan></text>
  <text
     xml:space="preserve"
     style="font-style:normal;font-variant:normal;font-weight:bold;font-stretch:normal;line-height:0%;font-family:serif;text-align:start;writing-mode:lr-tb;text-anchor:start;fill:#000000;fill-opacity:1;stroke:none;stroke-width:1px;stroke-linecap:butt;stroke-linejoin:miter;stroke-opacity:1"
     x="589.40869"
     y="802.77441"
     id="text1989"><tspan
       sodipodi:role="line"
       id="tspan1991"
       x="589.40869"
       y="802.77441"
       style="font-size:72px;line-height:1.25;font-family:serif">R</tspan><tspan
       style="font-size:56px;font-family:serif"
       dy="20"
       id="tspan1993">g</tspan></text>
  <text
     xml:space="preserve"
     style="font-style:normal;font-variant:normal;font-weight:bold;font-stretch:normal;line-height:0%;font-family:serif;text-align:start;writing-mode:lr-tb;text-anchor:start;fill:#000000;fill-opacity:1;stroke:none;stroke-width:1px;stroke-linecap:butt;stroke-linejoin:miter;stroke-opacity:1"
     x="723.00049"
     y="77.232697"
     id="text1995"><tspan
       sodipodi:role="line"
       id="tspan1997"
       x="723.00049"
       y="77.232697"
       style="font-size:72px;line-height:1.25;font-family:serif">R</tspan><tspan
       style="font-size:56px;font-family:serif"
       dy="20"
       id="tspan65">f</tspan><tspan
       style="font-size:56px;font-family:serif"
       id="tspan1999" /></text>
  <path
     id="path2038"
     d="M 392.67391,410.18727 L 392.67391,354.48987 L 260.42837,354.48987 L 260.42837,410.18727 L 392.67391,410.18727 z "
     style="fill:none;stroke:black;stroke-width:4.875;stroke-linecap:round"
     sodipodi:nodetypes="ccccc" />
  <path
     id="path2040"
     d="M 391.85957,589.34251 L 391.85957,533.64511 L 259.61403,533.64511 L 259.61403,589.34251 L 391.85957,589.34251 z "
     style="fill:none;stroke:black;stroke-width:4.875;stroke-linecap:round"
     sodipodi:nodetypes="ccccc" />
  <path
     id="path2042"
     d="M 813.68872,172.39941 L 813.68872,116.70201 L 681.44318,116.70201 L 681.44318,172.39941 L 813.68872,172.39941 z "
     style="fill:none;stroke:black;stroke-width:4.875;stroke-linecap:round"
     sodipodi:nodetypes="ccccc" />
  <path
     id="path2044"
     d="M 566.9431,707.09996 L 511.2457,707.09996 L 511.2457,839.3455 L 566.9431,839.3455 L 566.9431,707.09996 z "
     style="fill:none;stroke:black;stroke-width:4.875;stroke-linecap:round"
     sodipodi:nodetypes="ccccc" />
  <text
     xml:space="preserve"
     style="font-style:normal;font-variant:normal;font-weight:bold;font-stretch:normal;line-height:0%;font-family:serif;text-align:start;writing-mode:lr-tb;text-anchor:start;fill:#000000;fill-opacity:1;stroke:none;stroke-width:1px;stroke-linecap:butt;stroke-linejoin:miter;stroke-opacity:1"
     x="506.3858"
     y="532.59113"
     id="text2"><tspan
       style="font-size:72px;line-height:1.25;font-family:serif"
       id="tspan2">V+</tspan></text>
  <text
     xml:space="preserve"
     style="font-style:normal;font-variant:normal;font-weight:bold;font-stretch:normal;line-height:0%;font-family:serif;text-align:start;writing-mode:lr-tb;text-anchor:start;fill:#000000;fill-opacity:1;stroke:none;stroke-width:1px;stroke-linecap:butt;stroke-linejoin:miter;stroke-opacity:1"
     x="506.3858"
     y="458.59113"
     id="text3"><tspan
       style="font-size:72px;line-height:1.25;font-family:serif"
       id="tspan3">V-</tspan></text>
</svg>
